<svg width="current" height="current" viewBox="0 0 24 24" fill="currentColor" xmlns="http://www.w3.org/2000/svg">
<path d="M6.30711 19.2929C5.91658 19.6834 5.28342 19.6834 4.89289 19.2929L4.70711 19.1071C4.31658 18.7166 4.31658 18.0834 4.70711 17.6929L10.4 12L4.70711 6.30711C4.31658 5.91658 4.31658 5.28342 4.70711 4.89289L4.89289 4.70711C5.28342 4.31658 5.91658 4.31658 6.30711 4.70711L12 10.4L17.6929 4.70711C18.0834 4.31658 18.7166 4.31658 19.1071 4.70711L19.2929 4.89289C19.6834 5.28342 19.6834 5.91658 19.2929 6.30711L13.6 12L19.2929 17.6929C19.6834 18.0834 19.6834 18.7166 19.2929 19.1071L19.1071 19.2929C18.7166 19.6834 18.0834 19.6834 17.6929 19.2929L12 13.6L6.30711 19.2929Z" fill="currentColor"/>
</svg>
